HIERARCHY
ROOT Hips
{
	OFFSET -0.001795 -0.223333 0.028219
	CHANNELS 6 Xposition Yposition Zposition Zrotation Yrotation Xrotation 
	JOINT LeftUpLeg
	{
		OFFSET 0.069520 -0.091406 -0.006815
		CHANNELS 3 Zrotation Yrotation Xrotation
		JOINT LeftLeg
		{
			OFFSET 0.034277 -0.375199 -0.004496
			CHANNELS 3 Zrotation Yrotation Xrotation
			JOINT LeftFoot
			{
				OFFSET -0.013596 -0.397961 -0.043693
				CHANNELS 3 Zrotation Yrotation Xrotation
				JOINT LeftToe
				{
					OFFSET 0.026358 -0.055791 0.119288
					CHANNELS 3 Zrotation Yrotation Xrotation
					End Site
					{
						OFFSET 0.000000 0.000000 0.000000
					}
				}
			}
		}
	}
	JOINT RightUpLeg
	{
		OFFSET -0.067670 -0.090522 -0.004320
		CHANNELS 3 Zrotation Yrotation Xrotation
		JOINT RightLeg
		{
			OFFSET -0.038290 -0.382569 -0.008850
			CHANNELS 3 Zrotation Yrotation Xrotation
			JOINT RightFoot
			{
				OFFSET 0.015774 -0.398415 -0.042312
				CHANNELS 3 Zrotation Yrotation Xrotation
				JOINT RightToe
				{
					OFFSET -0.025372 -0.048144 0.123348
					CHANNELS 3 Zrotation Yrotation Xrotation
					End Site
					{
						OFFSET 0.000000 0.000000 0.000000
					}
				}
			}
		}
	}
	JOINT Spine
	{
		OFFSET -0.002533 0.108963 -0.026696
		CHANNELS 3 Zrotation Yrotation Xrotation
		JOINT Spine1
		{
			OFFSET 0.005487 0.135180 0.001092
			CHANNELS 3 Zrotation Yrotation Xrotation
			JOINT Spine2
			{
				OFFSET 0.001457 0.052922 0.025425
				CHANNELS 3 Zrotation Yrotation Xrotation
				JOINT Neck
				{
					OFFSET -0.002778 0.213870 -0.042857
					CHANNELS 3 Zrotation Yrotation Xrotation
					JOINT Head
					{
						OFFSET 0.005152 0.064970 0.051349
						CHANNELS 3 Zrotation Yrotation Xrotation
						End Site
						{
							OFFSET 0.000000 0.000000 0.000000
						}
					}
				}
				JOINT LeftShoulder
				{
					OFFSET 0.078845 0.121749 -0.034090
					CHANNELS 3 Zrotation Yrotation Xrotation
					JOINT LeftArm
					{
						OFFSET 0.090977 0.030469 -0.008868
						CHANNELS 3 Zrotation Yrotation Xrotation
						JOINT LeftForeArm
						{
							OFFSET 0.259612 -0.012772 -0.027456
							CHANNELS 3 Zrotation Yrotation Xrotation
							JOINT LeftHand
							{
								OFFSET 0.249234 0.008986 -0.001171
								CHANNELS 3 Zrotation Yrotation Xrotation
								End Site
								{
									OFFSET 0.000000 0.000000 0.000000
								}
							}
						}
					}
				}
				JOINT RightShoulder
				{
					OFFSET -0.081759 0.118833 -0.038615
					CHANNELS 3 Zrotation Yrotation Xrotation
					JOINT RightArm
					{
						OFFSET -0.096012 0.032551 -0.009143
						CHANNELS 3 Zrotation Yrotation Xrotation
						JOINT RightForeArm
						{
							OFFSET -0.253742 -0.013329 -0.021401
							CHANNELS 3 Zrotation Yrotation Xrotation
							JOINT RightHand
							{
								OFFSET -0.255298 0.007772 -0.005559
								CHANNELS 3 Zrotation Yrotation Xrotation
								End Site
								{
									OFFSET 0.000000 0.000000 0.000000
								}
							}
						}
					}
				}
			}
		}
	}
}
MOTION
Frames: 16
Frame Time: 0.050000
0.000000 0.939608 0.000000 -0.805723 7.290128 1.917346 3.827577 -0.269554 -2.716399 -3.840903 -0.461302 31.001472 2.018064 4.028662 -0.403147 0.000000 0.000000 0.000000 -0.275280 1.814278 -21.022764 4.841329 -0.965684 17.923324 -2.657155 -8.097811 6.479273 0.000000 0.000000 0.000000 1.230290 -0.474583 8.134160 5.904921 -0.637766 -25.048765 -2.065844 -8.031978 30.104870 -2.653137 2.356530 -21.904299 0.000000 0.000000 0.000000 -21.082792 4.705595 -2.870421 -57.006126 -12.081342 -4.013889 -11.785593 -31.805291 5.680091 0.000000 0.000000 0.000000 11.088456 -0.325097 -1.087989 59.277667 2.658642 -7.502147 1.395862 30.023615 1.723533 0.000000 0.000000 0.000000 
-0.003792 0.942930 0.022357 -0.081039 6.768784 1.302522 3.939705 -0.527498 -7.251815 -6.181853 0.206462 41.194355 2.100288 6.419420 5.135325 0.000000 0.000000 0.000000 0.257723 1.653327 -17.637698 3.552021 -0.537176 16.263995 -1.941405 -6.802503 7.321612 0.000000 0.000000 0.000000 0.543739 -0.484805 9.480448 6.270464 -0.766928 -24.586663 -1.251277 -6.515168 29.675019 -3.470052 3.085230 -21.101866 0.000000 0.000000 0.000000 -19.417477 5.873328 -3.697769 -57.843367 -11.206861 -4.316660 -13.317943 -31.976885 6.094875 0.000000 0.000000 0.000000 9.877196 0.667845 -0.368722 60.157526 4.963951 -6.374351 1.584701 29.560814 1.819036 0.000000 0.000000 0.000000 
-0.006006 0.944082 0.042532 0.728189 6.774640 1.164989 3.846938 -0.793947 -11.225781 -7.322800 0.663941 46.083446 2.977875 7.393069 3.172832 0.000000 0.000000 0.000000 -0.302154 1.318449 -14.434246 3.623321 -0.523339 14.283443 -2.428805 -7.567624 5.984521 0.000000 0.000000 0.000000 0.098067 -0.470170 10.064996 5.750030 -0.715051 -23.383797 -0.498140 -5.435656 28.616411 -3.279286 3.138738 -21.129843 0.000000 0.000000 0.000000 -19.637904 5.670975 -3.895607 -57.074889 -8.941683 -5.257419 -14.701636 -33.532173 6.729695 0.000000 0.000000 0.000000 9.274364 0.714308 -0.192772 60.245447 5.756270 -5.804750 2.957245 29.716473 2.221521 0.000000 0.000000 0.000000 
-0.006957 0.947387 0.061171 1.161608 7.058592 1.536414 3.838805 -1.081556 -15.045861 -7.481421 0.669671 47.235998 3.745912 8.924054 3.283134 0.000000 0.000000 0.000000 -0.253357 1.156061 -12.454921 2.880552 -0.328947 12.115522 -2.000249 -6.641983 6.113021 0.000000 0.000000 0.000000 -0.760457 -0.395121 10.273359 6.513263 -0.853059 -24.059171 0.359909 -4.542105 29.234258 -3.732819 3.611331 -20.777337 0.000000 0.000000 0.000000 -19.647971 7.075893 -4.955288 -57.900045 -9.086860 -5.265557 -16.234956 -33.181729 7.070848 0.000000 0.000000 0.000000 6.931311 1.157533 0.233905 61.463115 7.077902 -5.169277 1.009537 30.022872 1.870663 0.000000 0.000000 0.000000 
-0.006685 0.949136 0.078621 1.488157 7.357940 1.139222 3.621424 -1.256393 -16.879034 -7.093860 0.492681 43.508372 5.296348 11.101818 0.287854 0.000000 0.000000 0.000000 -0.272028 0.935873 -9.928053 2.688137 -0.286587 10.697407 -2.243074 -7.058870 5.642749 0.000000 0.000000 0.000000 -1.035577 -0.379242 10.499159 6.226258 -0.788500 -23.926139 0.483191 -3.052275 29.891812 -3.464886 3.723767 -20.354811 0.000000 0.000000 0.000000 -19.989916 6.023571 -4.820534 -57.270694 -8.091987 -5.753098 -16.445114 -33.303572 6.983826 0.000000 0.000000 0.000000 7.908259 2.178338 0.835675 60.066169 8.115979 -4.541345 0.496732 30.640312 1.897060 0.000000 0.000000 0.000000 
-0.005149 0.951081 0.094340 2.346674 7.435387 1.172443 2.935557 -1.521624 -18.860934 -7.113056 0.663555 36.924190 5.439232 11.517854 0.729323 0.000000 0.000000 0.000000 -0.685026 0.742823 -8.035064 2.222277 -0.186097 9.931452 -2.016381 -6.368340 4.787760 0.000000 0.000000 0.000000 -2.205496 -0.269760 10.790033 6.694207 -0.901809 -23.967282 0.582912 -2.540928 30.265174 -3.846909 4.081017 -21.236140 0.000000 0.000000 0.000000 -20.998179 6.799789 -5.584962 -57.172148 -7.559891 -5.982985 -15.855856 -32.296127 6.522225 0.000000 0.000000 0.000000 7.313972 2.870787 1.183685 59.838305 9.348822 -3.870789 -0.396997 31.214646 1.742862 0.000000 0.000000 0.000000 
-0.002202 0.951755 0.109428 2.329681 7.229929 1.540674 3.011227 -1.589193 -19.749400 -6.374688 0.579072 28.174276 4.799703 10.526799 1.633879 0.000000 0.000000 0.000000 -0.865610 0.677652 -7.365768 2.291862 -0.196899 10.049139 -1.510266 -5.256799 4.870288 0.000000 0.000000 0.000000 -2.278463 -0.245713 10.420622 6.557562 -0.901444 -23.485566 0.793831 -1.902350 30.130204 -4.175253 4.381031 -21.126779 0.000000 0.000000 0.000000 -22.131643 7.129856 -6.161092 -56.708295 -6.337573 -6.447183 -15.736822 -31.531697 6.250358 0.000000 0.000000 0.000000 7.537108 3.264455 1.403484 59.158780 9.822921 -3.557961 -1.148101 32.145902 1.632647 0.000000 0.000000 0.000000 
0.001823 0.951399 0.124998 1.967566 7.108328 2.255019 2.582234 -1.689832 -20.186865 -4.843394 0.298496 19.175393 3.275981 7.909179 2.647637 0.000000 0.000000 0.000000 -0.377613 0.661011 -6.860673 2.138230 -0.161847 10.105582 -1.535080 -5.240823 4.566138 0.000000 0.000000 0.000000 -2.267526 -0.222310 9.794835 6.165461 -0.824306 -23.107385 1.038664 -1.628562 29.676222 -4.303730 4.491830 -20.979503 0.000000 0.000000 0.000000 -22.246261 7.159472 -6.294546 -56.940833 -5.407332 -6.827834 -14.773774 -30.148092 5.648071 0.000000 0.000000 0.000000 7.674811 3.731178 1.625679 59.241241 10.211967 -3.272956 -0.390766 32.059861 1.819942 0.000000 0.000000 0.000000 
0.006891 0.949686 0.141916 1.107454 6.746805 2.585011 2.278513 -1.667823 -19.655659 -3.382553 0.109539 13.025765 2.068571 6.585670 5.300249 0.000000 0.000000 0.000000 0.202752 0.621455 -6.146370 2.417346 -0.213674 9.865540 -1.556221 -5.329241 4.631931 0.000000 0.000000 0.000000 -1.661599 -0.258616 9.235844 5.585445 -0.680740 -23.050945 1.295852 -1.679524 30.073082 -3.651930 4.036139 -20.884367 0.000000 0.000000 0.000000 -22.642763 7.241235 -6.345362 -57.105213 -4.803717 -7.176292 -13.055272 -29.456869 5.077642 0.000000 0.000000 0.000000 8.443178 3.825650 1.675542 58.992625 10.833339 -3.058512 -0.285652 31.932218 1.829069 0.000000 0.000000 0.000000 
0.013104 0.946769 0.160717 0.738698 6.218980 2.485407 2.006734 -1.591700 -18.650568 -3.090706 0.117290 10.815898 1.963098 7.363798 8.138272 0.000000 0.000000 0.000000 0.415272 0.557682 -5.420224 2.482156 -0.214765 10.856828 -2.009749 -5.903331 2.677785 0.000000 0.000000 0.000000 -1.874340 -0.204881 8.289419 5.918114 -0.798530 -22.779678 1.242704 -1.225102 30.993338 -3.201468 3.799329 -21.447555 0.000000 0.000000 0.000000 -22.470801 7.708718 -6.601320 -57.637371 -4.666294 -7.409307 -12.367209 -28.620476 4.764815 0.000000 0.000000 0.000000 7.977689 3.935207 1.740855 59.943396 11.664470 -2.711129 -0.431505 31.545945 1.806272 0.000000 0.000000 0.000000 
0.019987 0.943192 0.179974 0.955009 6.005433 2.586705 1.156998 -1.641396 -18.064587 -2.588611 0.024733 10.874904 1.984420 7.577902 8.730552 0.000000 0.000000 0.000000 0.240887 0.533751 -5.234540 2.299013 -0.166874 13.314685 -2.461494 -6.518277 0.782004 0.000000 0.000000 0.000000 -2.615946 -0.116793 7.404832 5.549287 -0.712239 -22.708169 1.278375 -1.405686 30.945043 -3.612800 4.009189 -21.080554 0.000000 0.000000 0.000000 -21.975054 8.104272 -6.645215 -57.628310 -4.309600 -7.591958 -12.683061 -27.975329 4.747902 0.000000 0.000000 0.000000 8.368014 3.756603 1.643213 60.641716 11.384119 -2.877610 0.762707 30.988327 2.054102 0.000000 0.000000 0.000000 
0.027471 0.941934 0.197995 1.545773 5.875835 2.944531 -0.150972 -1.680122 -16.886930 -3.195136 0.143330 10.829389 2.701880 8.521600 7.859223 0.000000 0.000000 0.000000 -0.701607 0.661767 -6.968750 2.125500 -0.130101 18.562186 -2.912392 -7.350030 -0.384036 0.000000 0.000000 0.000000 -3.162922 -0.051465 6.468788 5.021980 -0.557195 -23.021002 0.403203 -1.513625 31.257456 -3.629496 3.977656 -19.893031 0.000000 0.000000 0.000000 -20.855057 8.491680 -6.576787 -57.930455 -4.588167 -7.553221 -12.440281 -27.514383 4.630007 0.000000 0.000000 0.000000 8.865384 3.060019 1.337339 61.525406 11.613962 -2.801616 1.317890 30.098443 2.134767 0.000000 0.000000 0.000000 
0.035033 0.943037 0.213688 1.791046 5.725433 2.807948 -0.863883 -1.569738 -15.202277 -3.590647 0.231923 10.243287 2.524788 7.758930 6.513479 0.000000 0.000000 0.000000 -1.653750 0.850815 -9.934080 2.369653 -0.268703 25.947943 -2.530992 -6.550093 0.350475 0.000000 0.000000 0.000000 -3.955593 0.000120 6.615799 4.920551 -0.522791 -23.238538 0.148612 -1.737404 31.016455 -3.222219 3.619303 -18.355675 0.000000 0.000000 0.000000 -19.620904 8.391247 -6.191529 -58.826112 -5.278031 -7.307995 -12.829608 -27.017303 4.659188 0.000000 0.000000 0.000000 9.002563 2.734163 1.145803 62.226471 12.281292 -2.409818 1.640863 29.475724 2.136442 0.000000 0.000000 0.000000 
0.041539 0.943385 0.227179 1.182665 5.845324 1.969231 -0.976159 -1.276867 -12.524622 -3.643151 0.251254 9.492763 2.249384 6.774987 5.134251 0.000000 0.000000 0.000000 -2.505544 0.975226 -12.760027 4.746529 -1.421840 32.813770 -2.558131 -7.065618 2.115617 0.000000 0.000000 0.000000 -4.116888 -0.009657 7.389709 4.939906 -0.550847 -22.890579 -0.205840 -1.914788 31.305819 -2.604096 3.147532 -17.365203 0.000000 0.000000 0.000000 -19.072713 8.028929 -5.827829 -58.829444 -6.507612 -6.769314 -12.928026 -27.606981 4.817373 0.000000 0.000000 0.000000 9.231882 2.413831 0.997337 62.585546 13.269995 -1.935702 1.745735 29.687807 2.202960 0.000000 0.000000 0.000000 
0.046535 0.944179 0.238830 0.647645 5.754949 1.192568 -0.606322 -1.000847 -10.258011 -3.505424 0.249337 8.257408 2.191366 6.361963 4.346669 0.000000 0.000000 0.000000 -4.758211 0.880060 -15.801082 8.884365 -3.694084 38.325171 -3.269603 -9.208926 4.272348 0.000000 0.000000 0.000000 -3.794008 -0.063756 8.748394 4.754999 -0.530152 -22.554460 -0.221667 -2.225978 31.125784 -2.561685 3.020406 -16.260234 0.000000 0.000000 0.000000 -19.396659 7.673015 -5.568053 -57.327757 -7.890554 -5.998534 -13.713984 -29.108655 5.341713 0.000000 0.000000 0.000000 9.769931 3.091265 1.247857 62.303126 13.599626 -1.809095 1.564501 30.830775 2.235208 0.000000 0.000000 0.000000 
0.050360 0.945650 0.249637 -0.069536 4.691667 0.874784 0.428025 -0.749196 -8.376114 -4.001136 0.360736 7.312594 2.927816 7.534604 3.903249 0.000000 0.000000 0.000000 -6.924284 0.707386 -18.719094 11.324262 -4.870380 40.109306 -3.890274 -10.582631 4.024947 0.000000 0.000000 0.000000 -2.810545 -0.161863 9.517884 5.091738 -0.689897 -21.800770 -0.413100 -0.772690 31.053412 -3.159316 3.594370 -16.218625 0.000000 0.000000 0.000000 -18.837971 7.741790 -5.705047 -57.470166 -9.445334 -5.240151 -13.905436 -30.098856 5.524997 0.000000 0.000000 0.000000 9.721175 2.484140 1.067937 62.001891 14.537384 -1.264509 1.684410 30.827733 2.323973 0.000000 0.000000 0.000000 
